<svg width="42" height="50" viewBox="0 0 42 50" fill="none" xmlns="http://www.w3.org/2000/svg">
<path fill-rule="evenodd" clip-rule="evenodd" d="M6.01908 5.96796L6.01907 5.96795C5.97917 5.94583 5.93882 5.92345 5.89459 5.89397H5.90292C5.90565 5.88941 5.90899 5.88455 5.91252 5.8794L5.91253 5.87938C5.91978 5.86883 5.92788 5.85703 5.93347 5.84397C5.94458 5.8398 5.95639 5.83633 5.9682 5.83286L5.96821 5.83285C5.98001 5.82938 5.99181 5.82591 6.00292 5.82174C6.06821 5.86838 6.09091 5.91753 6.11476 5.96918C6.12642 5.99444 6.13836 6.02029 6.1557 6.04674C8.61959 7.59397 9.99736 6.76341 10.9613 4.60508C11.0946 4.29397 11.2224 3.95786 11.3474 3.59952C12.4858 0.255749 15.1642 0.215048 17.7546 0.175684C18.5836 0.163086 19.4036 0.150626 20.1613 0.0300776C21.989 -0.256033 21.4057 1.44674 20.614 2.26619C20.3527 2.54016 20.0456 2.77081 19.7275 3.00969C18.9265 3.61126 18.0561 4.265 17.6724 5.79397C18.4111 5.79397 19.1183 5.79859 19.8038 5.80307C21.3093 5.81291 22.7103 5.82207 24.1113 5.78008C26.7307 5.7023 27.1751 6.65508 25.7307 8.77452C25.4143 9.24169 25.1584 9.7523 24.903 10.2618L24.903 10.2619C24.5845 10.8975 24.2667 11.5315 23.8335 12.0773C22.3196 13.9717 22.3529 15.2662 24.8363 16.1495C25.4613 16.3717 26.2668 16.9273 26.4251 17.4912C27.1789 20.1624 28.9836 22.1696 30.7831 24.171C32.7767 26.3884 34.7639 28.5987 35.3085 31.6967C35.3338 31.8393 35.3511 31.9713 35.367 32.0922C35.4536 32.7535 35.4968 33.0828 36.5724 32.9912C38.4057 32.819 40.5751 32.7967 41.0863 35.1356C41.5779 37.3662 39.9863 38.7856 38.2835 39.9634C38.0515 40.1219 37.8748 40.3543 37.6773 40.614L37.6772 40.614L37.6772 40.6141C37.5909 40.7276 37.5007 40.8462 37.4001 40.9662C37.5572 41.6515 38.1512 41.6697 38.7071 41.6867C39.2621 41.7037 39.7793 41.7196 39.7863 42.3967C39.7974 43.5245 38.589 44.0495 37.7529 44.3079C33.489 45.6329 28.9974 46.0829 24.6251 45.994C22.2912 45.9425 20.2483 46.6884 18.2165 47.4303C16.7418 47.9687 15.273 48.5051 13.7029 48.7329C13.473 48.7672 13.2473 48.8186 13.0171 48.871C12.185 49.0604 11.2952 49.2629 9.94181 48.719C11.5467 48.1361 12.607 46.9544 13.675 45.7641C15.2688 43.9877 16.88 42.192 20.3446 42.3384C19.7381 42.0864 19.251 41.8809 18.8418 41.7082L18.8389 41.707L18.8387 41.7069L18.8386 41.7069L18.8385 41.7069C18.0409 41.3703 17.5399 41.1589 17.0279 40.9717C14.6974 40.1301 14.3863 38.494 16.1251 36.5995C17.1057 35.5356 17.7835 34.394 15.5613 33.9329C14.3397 33.6811 14.6312 33.1584 14.9544 32.5789C15.1875 32.1608 15.4372 31.7131 15.1474 31.3162C14.7751 30.8051 15.9974 30.6606 16.7029 30.7495C18.7918 31.019 21.7446 31.3801 20.9335 28.3273C20.8676 28.0806 20.8052 27.8026 20.7386 27.5063L20.7385 27.5061L20.7385 27.5059C20.2775 25.4535 19.6184 22.5192 16.2446 22.9634C12.589 23.444 11.4418 22.5384 13.7279 19.2217C13.2629 19.0137 12.6196 19.254 12.0029 19.4844C10.8328 19.9215 9.75868 20.3228 10.1807 17.5579C10.2057 17.3829 9.86125 16.9634 9.79181 16.9829C9.52605 17.0671 9.25448 17.3304 8.98452 17.5922L8.98451 17.5923C8.39951 18.1596 7.8221 18.7196 7.32792 17.4329C6.97531 16.5155 7.57204 16.273 8.27248 15.9883C8.98463 15.6988 9.804 15.3658 9.84181 14.2356C9.78667 14.0567 9.37544 14.0527 8.93276 14.0484C8.19341 14.0412 7.36634 14.0332 7.96403 13.2079C9.95359 10.4628 8.43143 9.30913 6.72839 8.01841L6.72833 8.01837L6.72817 8.01825C6.55286 7.88538 6.37564 7.75107 6.20014 7.61341C5.96994 7.43416 6.05376 7.1639 6.1434 6.8749C6.18572 6.73845 6.22933 6.59783 6.24181 6.46063C6.24181 6.45647 6.24042 6.45092 6.23903 6.44536L6.23903 6.44536C6.23764 6.4398 6.23625 6.43424 6.23625 6.43008C6.24459 6.29952 6.2307 6.16619 6.15014 6.04674C6.10415 6.01513 6.06188 5.99169 6.01909 5.96796L6.01908 5.96796ZM1.47792 26.1856C0.916807 26.094 0.277918 25.5051 0.339029 24.6579C0.461252 23.1023 5.20292 19.9329 7.30847 20.0579C9.24761 20.1646 9.87295 21.4824 10.4607 22.7212C10.6989 23.2232 10.931 23.7122 11.2418 24.1023C11.1501 25.9356 10.0418 26.9717 8.85014 26.9773C6.51014 27.0064 4.15248 26.6218 1.82283 26.2418L1.47792 26.1856ZM8.19181 0.8773C5.56681 1.5773 4.05292 2.97174 4.23903 5.79119C2.48065 5.96414 2.99071 6.67928 3.46081 7.33839C3.53432 7.44146 3.60686 7.54315 3.66958 7.64119C3.8053 7.33243 4.04152 7.04233 4.28521 6.74303L4.28522 6.74303C4.44055 6.55226 4.59892 6.35775 4.73625 6.1523C4.8904 6.11242 5.04497 6.07169 5.19963 6.03095L5.19983 6.0309C5.44364 5.96666 5.68769 5.90237 5.9307 5.84119C6.16748 5.31917 6.57456 4.87779 6.98746 4.4301C7.82913 3.51752 8.69497 2.57873 8.19181 0.8773ZM3.57514 8.42452C3.99736 8.2773 3.88347 7.98286 3.66681 7.64119C3.55847 7.88008 3.49459 8.13008 3.57514 8.42452Z" fill="#0E8784"/>
</svg>
